<?xml version="1.0" encoding="utf-8"?>
<!-- Generator: Adobe Illustrator 26.1.0, SVG Export Plug-In . SVG Version: 6.00 Build 0)  -->
<svg version="1.1" id="Layer_1" xmlns="http://www.w3.org/2000/svg" xmlns:xlink="http://www.w3.org/1999/xlink" x="0px" y="0px"
	 viewBox="0 0 1080 1080" style="enable-background:new 0 0 1080 1080;" xml:space="preserve">
<style type="text/css">
	.st0{fill:#2F294D;}
</style>
<g id="Layer_1_00000031204602653069371920000010658444502940376222_">
	<path class="st0" d="M910.2,183.6L910.2,183.6c-8.4-4-18.4-3-25.8,2.6l-117.8,90.4c-13.8-27.5-35.3-67.9-61.2-108.7
		C642.8,69.3,588.8,21.5,540,21.5c-48.8,0-102.8,47.9-165.4,146.5c-25.9,40.8-47.4,81.2-61.2,108.7l-117.8-90.4
		c-7.5-5.6-17.4-6.6-25.8-2.6c-8.4,4.1-13.8,12.7-13.7,22v828.3c0,13.6,11,24.6,24.6,24.6c13.6,0,24.6-11,24.6-24.6V655h55
		c-0.7,13.8-1.4,34.4-1.4,58c0,164.1,126.1,297.6,281.1,297.6S821.1,877.1,821.1,713c0-23.8-0.7-44.3-1.4-58h55v378.9
		c0,13.6,11,24.6,24.6,24.6c13.6,0,24.6-11,24.6-24.6V205.7C924,196.3,918.6,187.7,910.2,183.6z M874.7,255.5v350.4H668.6
		c-14.7-43.9-43.8-84.4-88.8-123.8L874.7,255.5z M540,961.4C412,961.4,308,850,308,713c0-23.5,0.8-44.2,1.5-58h91.2
		c-1.3,12.3-1.9,24.7-1.9,37.1c0,82,63.3,148.6,141.1,148.6S681.1,774,681.1,692.1c0.1-12.4-0.6-24.8-1.9-37.1h91.2
		c0.7,13.7,1.5,34.4,1.5,58C771.9,850,668,961.4,540,961.4z M540,512.5c30.3,25.2,51.2,48.5,65.6,73.4
		c17.7,30.7,26.3,65.4,26.3,106.1c0,54.8-41.3,99.5-92,99.5s-92-44.6-92-99.5c-0.3-18.4,1.6-36.8,5.7-54.7c0.2-0.8,0.4-1.5,0.5-2.3
		C465.1,591.3,492.3,552.3,540,512.5L540,512.5z M540,70.6c22.6,0,57.5,30,95.8,82.4c30.3,41.4,64.3,98.9,91.2,154L540,450.5
		L353.1,307.1c26.8-55.2,60.8-112.6,91.1-154C482.5,100.7,517.4,70.7,540,70.6L540,70.6z M500.1,482c-45,39.4-74,80-88.8,123.8
		H288.2c-1-0.1-2.1-0.1-3.1,0h-79.7V255.4L500.1,482z"/>
</g>
</svg>
